# ProBuilder 4.2.3
# https://unity3d.com/unity/features/worldbuilding/probuilder
# 22/3/2022 7:56:22 p. m.

mtllib ./platform.mtl
o platform

g Cube (12)
v -102.056 10.34755 234.3885
v -101.2214 10.34755 232.5621
v -102.056 10.76353 234.3885
v -101.2214 10.76353 232.5621
v -100.3345 10.34755 232.2315
v -98.50809 10.34755 233.0661
v -100.3345 10.76353 232.2315
v -98.50809 10.76353 233.0661
v -98.17749 10.34755 233.953
v -99.01207 10.34755 235.7794
v -98.17749 10.76353 233.953
v -99.01207 10.76353 235.7794
v -99.89906 10.34755 236.11
v -101.7254 10.34755 235.2755
v -99.89906 10.76353 236.11
v -101.7254 10.76353 235.2755

vt -0.2 0
vt -0.8 0
vt -0.2 1
vt -0.8 1
vt 0.8 0
vt 0.2 0
vt 0.8 1
vt 0.2 1
vt -0.5656855 0
vt -0.5656855 1
vt -0.8485281 0
vt -0.8485281 1
vt -0.1414214 1
vt -0.1414214 0
vt 0.1414214 1
vt 0.1414214 0
vt 0.8485281 0
vt 0.8485281 1
vt 0.5656855 0
vt 0.5656855 1
vt -0.8 -1
vt -1 -0.8
vt -1 -0.2
vt 0 -0.2
vt 0 -0.8
vt -0.2 -1
vt 1 -0.2
vt 1 -0.8
vt 0.8 -1
vt 0.2 -1

vn -3.043951 0 -1.390961
vn 1.390961 0 -3.043951
vn 3.043951 0 1.390961
vn -1.390961 0 3.043951
vn -1.168841 0 -3.135957
vn -3.135957 0 1.168841
vn 1.168841 0 3.135957
vn 3.135957 0 -1.168841
vn 0 -0.4159769 0
vn 0 0.4159769 0

usemtl ProBuilderDefault
f 1/1/9 10/26/9 14/24/9
f 10/26/9 1/1/9 5/23/9
f 9/21/9 10/26/9 5/23/9
f 5/23/9 6/22/9 9/21/9
f 5/23/9 1/1/9 2/2/9
f 10/26/9 13/25/9 14/24/9
f 16/24/10 15/25/10 12/30/10
f 4/5/10 3/6/10 7/27/10
f 11/29/10 8/28/10 7/27/10
f 7/27/10 12/30/10 11/29/10
f 7/27/10 3/6/10 12/30/10
f 16/24/10 12/30/10 3/6/10
f 4/4/1 2/2/1 1/1/1
f 1/1/1 3/3/1 4/4/1
f 8/4/2 6/2/2 5/1/2
f 5/1/2 7/3/2 8/4/2
f 12/8/3 10/6/3 9/5/3
f 9/5/3 11/7/3 12/8/3
f 16/8/4 14/6/4 13/5/4
f 13/5/4 15/7/4 16/8/4
f 5/11/5 2/9/5 4/10/5
f 4/10/5 7/12/5 5/11/5
f 16/15/6 3/13/6 1/14/6
f 1/14/6 14/16/6 16/15/6
f 13/19/7 10/17/7 12/18/7
f 12/18/7 15/20/7 13/19/7
f 9/14/8 6/16/8 8/15/8
f 8/15/8 11/13/8 9/14/8

